<?xml version="1.0" encoding="UTF-8"?>
<!-- PACLIC 40 — Logo Mark (flower only) · Print-ready vector SVG -->
<svg xmlns="http://www.w3.org/2000/svg" viewBox="0 0 200 200" width="200mm" height="200mm">
  <defs>
    <linearGradient id="petalGrad" x1="0%" y1="100%" x2="0%" y2="0%">
      <stop offset="0%" stop-color="#a82050"/>
      <stop offset="100%" stop-color="#de6888"/>
    </linearGradient>
  </defs>

  <!-- Flower centred at (100,100), scaled ×3.33 from the 60×60 web version -->
  <g transform="translate(100,100)">

    <!-- 5 petals -->
    <path d="M0,-10 C-16.67,-16.67 -30,-30 -25,-50 C-20,-63.33 -6.67,-70 0,-63.33 C6.67,-70 20,-63.33 25,-50 C30,-30 16.67,-16.67 0,-10 Z"
          fill="url(#petalGrad)" stroke="#8a1438" stroke-width="1.3" transform="rotate(0)"/>
    <path d="M0,-10 C-16.67,-16.67 -30,-30 -25,-50 C-20,-63.33 -6.67,-70 0,-63.33 C6.67,-70 20,-63.33 25,-50 C30,-30 16.67,-16.67 0,-10 Z"
          fill="url(#petalGrad)" stroke="#8a1438" stroke-width="1.3" transform="rotate(72)"/>
    <path d="M0,-10 C-16.67,-16.67 -30,-30 -25,-50 C-20,-63.33 -6.67,-70 0,-63.33 C6.67,-70 20,-63.33 25,-50 C30,-30 16.67,-16.67 0,-10 Z"
          fill="url(#petalGrad)" stroke="#8a1438" stroke-width="1.3" transform="rotate(144)"/>
    <path d="M0,-10 C-16.67,-16.67 -30,-30 -25,-50 C-20,-63.33 -6.67,-70 0,-63.33 C6.67,-70 20,-63.33 25,-50 C30,-30 16.67,-16.67 0,-10 Z"
          fill="url(#petalGrad)" stroke="#8a1438" stroke-width="1.3" transform="rotate(216)"/>
    <path d="M0,-10 C-16.67,-16.67 -30,-30 -25,-50 C-20,-63.33 -6.67,-70 0,-63.33 C6.67,-70 20,-63.33 25,-50 C30,-30 16.67,-16.67 0,-10 Z"
          fill="url(#petalGrad)" stroke="#8a1438" stroke-width="1.3" transform="rotate(288)"/>

    <!-- 5 long stamens (petal centres, r=40) -->
    <g stroke="#f0c030" stroke-width="3.67" stroke-linecap="round">
      <line x1="0"      y1="0"      x2="0"      y2="-40"/>
      <line x1="0"      y1="0"      x2="38.04"  y2="-12.36"/>
      <line x1="0"      y1="0"      x2="23.51"  y2="32.36"/>
      <line x1="0"      y1="0"      x2="-23.51" y2="32.36"/>
      <line x1="0"      y1="0"      x2="-38.04" y2="-12.36"/>
    </g>

    <!-- 10 short stamens (±22° flanking, r=25) -->
    <g stroke="#f0c030" stroke-width="2.67" stroke-linecap="round">
      <line x1="0" y1="0" x2="-9.37"  y2="-23.17"/>
      <line x1="0" y1="0" x2="9.37"   y2="-23.17"/>
      <line x1="0" y1="0" x2="19.17"  y2="-16.07"/>
      <line x1="0" y1="0" x2="24.93"  y2="1.73"/>
      <line x1="0" y1="0" x2="21.20"  y2="13.23"/>
      <line x1="0" y1="0" x2="6.03"   y2="24.27"/>
      <line x1="0" y1="0" x2="-6.03"  y2="24.27"/>
      <line x1="0" y1="0" x2="-21.20" y2="13.23"/>
      <line x1="0" y1="0" x2="-24.93" y2="1.73"/>
      <line x1="0" y1="0" x2="-19.17" y2="-16.07"/>
    </g>

    <!-- Anther dots — long stamens -->
    <g fill="#f0c030">
      <circle cx="0"      cy="-40"   r="4.67"/>
      <circle cx="38.04"  cy="-12.36" r="4.67"/>
      <circle cx="23.51"  cy="32.36"  r="4.67"/>
      <circle cx="-23.51" cy="32.36"  r="4.67"/>
      <circle cx="-38.04" cy="-12.36" r="4.67"/>
    </g>
    <!-- Anther dots — short stamens -->
    <g fill="#f0c030">
      <circle cx="-9.37"  cy="-23.17" r="3.0"/>
      <circle cx="9.37"   cy="-23.17" r="3.0"/>
      <circle cx="19.17"  cy="-16.07" r="3.0"/>
      <circle cx="24.93"  cy="1.73"   r="3.0"/>
      <circle cx="21.20"  cy="13.23"  r="3.0"/>
      <circle cx="6.03"   cy="24.27"  r="3.0"/>
      <circle cx="-6.03"  cy="24.27"  r="3.0"/>
      <circle cx="-21.20" cy="13.23"  r="3.0"/>
      <circle cx="-24.93" cy="1.73"   r="3.0"/>
      <circle cx="-19.17" cy="-16.07" r="3.0"/>
    </g>

    <!-- Gold centre -->
    <circle cx="0" cy="0" r="12.67" fill="#c07808"/>

  </g>
</svg>
