<?xml version="1.0" encoding="UTF-8"?>
<!-- PACLIC 40 — Logo Mark (flower only) · Print-ready vector SVG -->
<svg xmlns="http://www.w3.org/2000/svg" viewBox="0 0 200 200" width="200mm" height="200mm">
  <defs>
    <linearGradient id="petalGrad" x1="0%" y1="100%" x2="0%" y2="0%">
      <stop offset="0%" stop-color="#a82050"/>
      <stop offset="100%" stop-color="#de6888"/>
    </linearGradient>
  </defs>

  <!-- Flower centred at (100,100), coords ×3.33 from web version -->
  <g transform="translate(100,100)">

    <!-- 5 petals -->
    <path d="M0,-10 C-16.67,-16.67 -30,-30 -25,-50 C-20,-63.33 -6.67,-70 0,-63.33 C6.67,-70 20,-63.33 25,-50 C30,-30 16.67,-16.67 0,-10 Z"
          fill="url(#petalGrad)" stroke="#8a1438" stroke-width="1.3" transform="rotate(0)"/>
    <path d="M0,-10 C-16.67,-16.67 -30,-30 -25,-50 C-20,-63.33 -6.67,-70 0,-63.33 C6.67,-70 20,-63.33 25,-50 C30,-30 16.67,-16.67 0,-10 Z"
          fill="url(#petalGrad)" stroke="#8a1438" stroke-width="1.3" transform="rotate(72)"/>
    <path d="M0,-10 C-16.67,-16.67 -30,-30 -25,-50 C-20,-63.33 -6.67,-70 0,-63.33 C6.67,-70 20,-63.33 25,-50 C30,-30 16.67,-16.67 0,-10 Z"
          fill="url(#petalGrad)" stroke="#8a1438" stroke-width="1.3" transform="rotate(144)"/>
    <path d="M0,-10 C-16.67,-16.67 -30,-30 -25,-50 C-20,-63.33 -6.67,-70 0,-63.33 C6.67,-70 20,-63.33 25,-50 C30,-30 16.67,-16.67 0,-10 Z"
          fill="url(#petalGrad)" stroke="#8a1438" stroke-width="1.3" transform="rotate(216)"/>
    <path d="M0,-10 C-16.67,-16.67 -30,-30 -25,-50 C-20,-63.33 -6.67,-70 0,-63.33 C6.67,-70 20,-63.33 25,-50 C30,-30 16.67,-16.67 0,-10 Z"
          fill="url(#petalGrad)" stroke="#8a1438" stroke-width="1.3" transform="rotate(288)"/>

    <!-- 5 long curved stamens (gently arcing, one per petal) -->
    <g stroke="#f0c030" stroke-width="3.0" stroke-linecap="round" fill="none">
      <path d="M 0,0 Q  -8.33,-20.00   0,-40"/>
      <path d="M 0,0 Q  16.45,-14.09  38.04,-12.36"/>
      <path d="M 0,0 Q  18.48, 11.26  23.51, 32.36"/>
      <path d="M 0,0 Q  -5.03, 21.05 -23.51, 32.36"/>
      <path d="M 0,0 Q -21.58,  1.77 -38.04,-12.36"/>
    </g>

    <!-- 10 short curved stamens (±22° flanking each petal) -->
    <g stroke="#f0c030" stroke-width="2.2" stroke-linecap="round" fill="none">
      <path d="M 0,0 Q  -9.32, -9.72  -9.37,-23.17"/>
      <path d="M 0,0 Q   0.07,-13.45   9.37,-23.17"/>
      <path d="M 0,0 Q   6.36,-11.86  19.17,-16.07"/>
      <path d="M 0,0 Q  12.82, -4.13  24.93,  1.73"/>
      <path d="M 0,0 Q  13.25,  2.40  21.20, 13.23"/>
      <path d="M 0,0 Q   7.89, 10.92   6.03, 24.27"/>
      <path d="M 0,0 Q   1.83, 13.32  -6.03, 24.27"/>
      <path d="M 0,0 Q  -7.93, 10.86 -21.20, 13.23"/>
      <path d="M 0,0 Q -12.09,  5.86 -24.93,  1.73"/>
      <path d="M 0,0 Q -12.75, -4.20 -19.17,-16.07"/>
    </g>

    <!-- Anther beads — long stamens -->
    <g fill="#f0c030">
      <circle cx="0"      cy="-40"    r="4.67"/>
      <circle cx="38.04"  cy="-12.36" r="4.67"/>
      <circle cx="23.51"  cy=" 32.36" r="4.67"/>
      <circle cx="-23.51" cy=" 32.36" r="4.67"/>
      <circle cx="-38.04" cy="-12.36" r="4.67"/>
    </g>
    <!-- Anther beads — short stamens -->
    <g fill="#f0c030">
      <circle cx=" -9.37" cy="-23.17" r="3.0"/>
      <circle cx="  9.37" cy="-23.17" r="3.0"/>
      <circle cx=" 19.17" cy="-16.07" r="3.0"/>
      <circle cx=" 24.93" cy="  1.73" r="3.0"/>
      <circle cx=" 21.20" cy=" 13.23" r="3.0"/>
      <circle cx="  6.03" cy=" 24.27" r="3.0"/>
      <circle cx=" -6.03" cy=" 24.27" r="3.0"/>
      <circle cx="-21.20" cy=" 13.23" r="3.0"/>
      <circle cx="-24.93" cy="  1.73" r="3.0"/>
      <circle cx="-19.17" cy="-16.07" r="3.0"/>
    </g>

    <!-- Gold centre disc -->
    <circle cx="0" cy="0" r="12.67" fill="#c07808"/>

  </g>
</svg>
